# xmcd
#
# Track frame offsets:
#  150
#  15224
#  33975
#  44139
#  56475
#  65625
#  75940
#  88724
#  97198
#  107847
#  120109
#  130809
#  142518
#  156466
#  169968
#  182931
#
# Disc length: 2592 seconds
#
# Revision: 0
# Processed by: cddbd v1.5.2PL0 Copyright (c) Steve Scherf et al.
# Submitted via: AltoMP3_Maker 3.0
#
DISCID=ce0a1e10
DTITLE=Various Artist - Country Classics Vol 2
DYEAR=1900
DGENRE=
TTITLE0=Blanket On The Ground
TTITLE1=Old Shep
TTITLE2=Ragged But Right
TTITLE3=High Noon
TTITLE4=Two Red Red Lips
TTITLE5=Live Fast, Love Hard, Die Young
TTITLE6=Blossoms In The Springtime
TTITLE7=I Want To Be A Cowboy's Sweatheart
TTITLE8=Gone
TTITLE9=Mule Skinner Blues
TTITLE10=Ida Red
TTITLE11=Are You Teasing Me
TTITLE12=Always Late (With Your Kisses)
TTITLE13=Birmingham Bounce
TTITLE14=Each Night At Nine
TTITLE15=Gamblers Guitar
EXTD=
EXTT0=
EXTT1=
EXTT2=
EXTT3=
EXTT4=
EXTT5=
EXTT6=
EXTT7=
EXTT8=
EXTT9=
EXTT10=
EXTT11=
EXTT12=
EXTT13=
EXTT14=
EXTT15=
PLAYORDER=
